<mxfile host="65bd71144e">
    <diagram id="tnemgaQNzlohdmXj2KTO" name="ページ1">
        <mxGraphModel dx="856" dy="907" grid="1" gridSize="10" guides="1" tooltips="1" connect="1" arrows="1" fold="1" page="1" pageScale="1" pageWidth="1169" pageHeight="1654" math="0" shadow="0">
            <root>
                <mxCell id="0"/>
                <mxCell id="1" parent="0"/>
                <mxCell id="2" value="Actor" style="shape=umlActor;verticalLabelPosition=bottom;verticalAlign=top;html=1;" vertex="1" parent="1">
                    <mxGeometry x="20" y="10" width="30" height="60" as="geometry"/>
                </mxCell>
                <mxCell id="3" value="" style="html=1;points=[];perimeter=orthogonalPerimeter;" vertex="1" parent="1">
                    <mxGeometry x="30" y="90" width="10" height="700" as="geometry"/>
                </mxCell>
                <mxCell id="4" value="メイン画面" style="shape=umlLifeline;perimeter=lifelinePerimeter;whiteSpace=wrap;html=1;container=1;collapsible=0;recursiveResize=0;outlineConnect=0;" vertex="1" parent="1">
                    <mxGeometry x="80" y="20" width="100" height="770" as="geometry"/>
                </mxCell>
                <mxCell id="15" value="" style="html=1;points=[];perimeter=orthogonalPerimeter;" vertex="1" parent="4">
                    <mxGeometry x="45" y="80" width="10" height="130" as="geometry"/>
                </mxCell>
                <mxCell id="31" value="" style="html=1;points=[];perimeter=orthogonalPerimeter;" vertex="1" parent="4">
                    <mxGeometry x="45" y="250" width="10" height="210" as="geometry"/>
                </mxCell>
                <mxCell id="32" value="本の情報を削除" style="html=1;verticalAlign=bottom;endArrow=block;" edge="1" parent="4">
                    <mxGeometry width="80" relative="1" as="geometry">
                        <mxPoint x="-40" y="270" as="sourcePoint"/>
                        <mxPoint x="40" y="270" as="targetPoint"/>
                    </mxGeometry>
                </mxCell>
                <mxCell id="54" value="本の情報を更新" style="html=1;verticalAlign=bottom;endArrow=block;" edge="1" parent="4">
                    <mxGeometry width="80" relative="1" as="geometry">
                        <mxPoint x="-40" y="540" as="sourcePoint"/>
                        <mxPoint x="40" y="540" as="targetPoint"/>
                    </mxGeometry>
                </mxCell>
                <mxCell id="55" value="" style="html=1;points=[];perimeter=orthogonalPerimeter;" vertex="1" parent="4">
                    <mxGeometry x="45" y="520" width="10" height="210" as="geometry"/>
                </mxCell>
                <mxCell id="57" value="本の情報を更新&lt;br&gt;をクリック" style="html=1;verticalAlign=bottom;endArrow=block;" edge="1" parent="4">
                    <mxGeometry width="80" relative="1" as="geometry">
                        <mxPoint x="55" y="540" as="sourcePoint"/>
                        <mxPoint x="268" y="541" as="targetPoint"/>
                        <Array as="points">
                            <mxPoint x="245.5" y="540"/>
                        </Array>
                    </mxGeometry>
                </mxCell>
                <mxCell id="5" value="本の検索画面" style="shape=umlLifeline;perimeter=lifelinePerimeter;whiteSpace=wrap;html=1;container=1;collapsible=0;recursiveResize=0;outlineConnect=0;" vertex="1" parent="1">
                    <mxGeometry x="300" y="20" width="100" height="770" as="geometry"/>
                </mxCell>
                <mxCell id="30" value="" style="html=1;points=[];perimeter=orthogonalPerimeter;" vertex="1" parent="5">
                    <mxGeometry x="45" y="250" width="10" height="130" as="geometry"/>
                </mxCell>
                <mxCell id="56" value="" style="html=1;points=[];perimeter=orthogonalPerimeter;" vertex="1" parent="5">
                    <mxGeometry x="45" y="520" width="10" height="130" as="geometry"/>
                </mxCell>
                <mxCell id="6" value="本の登録画面" style="shape=umlLifeline;perimeter=lifelinePerimeter;whiteSpace=wrap;html=1;container=1;collapsible=0;recursiveResize=0;outlineConnect=0;" vertex="1" parent="1">
                    <mxGeometry x="190" y="20" width="100" height="770" as="geometry"/>
                </mxCell>
                <mxCell id="13" value="" style="html=1;points=[];perimeter=orthogonalPerimeter;" vertex="1" parent="6">
                    <mxGeometry x="45" y="80" width="10" height="60" as="geometry"/>
                </mxCell>
                <mxCell id="25" value="戻るボタンを押す" style="html=1;verticalAlign=bottom;endArrow=block;exitX=0.5;exitY=0.833;exitDx=0;exitDy=0;exitPerimeter=0;" edge="1" parent="6" source="19">
                    <mxGeometry width="80" relative="1" as="geometry">
                        <mxPoint x="480.5" y="130" as="sourcePoint"/>
                        <mxPoint x="55" y="130" as="targetPoint"/>
                        <Array as="points">
                            <mxPoint x="351" y="130"/>
                        </Array>
                    </mxGeometry>
                </mxCell>
                <mxCell id="7" value="本の更新画面" style="shape=umlLifeline;perimeter=lifelinePerimeter;whiteSpace=wrap;html=1;container=1;collapsible=0;recursiveResize=0;outlineConnect=0;" vertex="1" parent="1">
                    <mxGeometry x="520" y="20" width="100" height="770" as="geometry"/>
                </mxCell>
                <mxCell id="20" value="本の情報を入力" style="html=1;verticalAlign=bottom;endArrow=block;" edge="1" parent="7" target="10">
                    <mxGeometry width="80" relative="1" as="geometry">
                        <mxPoint x="-55" y="94.5" as="sourcePoint"/>
                        <mxPoint x="159.5" y="94.5" as="targetPoint"/>
                    </mxGeometry>
                </mxCell>
                <mxCell id="44" value="削除ボタンを押す" style="html=1;verticalAlign=bottom;endArrow=block;" edge="1" parent="7">
                    <mxGeometry width="80" relative="1" as="geometry">
                        <mxPoint x="-55" y="370" as="sourcePoint"/>
                        <mxPoint x="150" y="370" as="targetPoint"/>
                    </mxGeometry>
                </mxCell>
                <mxCell id="52" value="戻るボタンを押す" style="html=1;verticalAlign=bottom;endArrow=block;exitX=0.1;exitY=0.858;exitDx=0;exitDy=0;exitPerimeter=0;" edge="1" parent="7">
                    <mxGeometry width="80" relative="1" as="geometry">
                        <mxPoint x="156" y="407.48" as="sourcePoint"/>
                        <mxPoint x="-390" y="411" as="targetPoint"/>
                    </mxGeometry>
                </mxCell>
                <mxCell id="53" value="削除完了" style="html=1;verticalAlign=bottom;endArrow=block;" edge="1" parent="7">
                    <mxGeometry width="80" relative="1" as="geometry">
                        <mxPoint x="282.5" y="440" as="sourcePoint"/>
                        <mxPoint x="-390" y="440" as="targetPoint"/>
                    </mxGeometry>
                </mxCell>
                <mxCell id="67" value="" style="html=1;points=[];perimeter=orthogonalPerimeter;" vertex="1" parent="7">
                    <mxGeometry x="45" y="570" width="10" height="60" as="geometry"/>
                </mxCell>
                <mxCell id="73" value="戻るボタンを押す" style="html=1;verticalAlign=bottom;endArrow=block;" edge="1" parent="7">
                    <mxGeometry width="80" relative="1" as="geometry">
                        <mxPoint x="156" y="670.48" as="sourcePoint"/>
                        <mxPoint x="-390" y="670" as="targetPoint"/>
                    </mxGeometry>
                </mxCell>
                <mxCell id="8" value="本の削除画面" style="shape=umlLifeline;perimeter=lifelinePerimeter;whiteSpace=wrap;html=1;container=1;collapsible=0;recursiveResize=0;outlineConnect=0;" vertex="1" parent="1">
                    <mxGeometry x="410" y="20" width="100" height="770" as="geometry"/>
                </mxCell>
                <mxCell id="33" value="" style="html=1;points=[];perimeter=orthogonalPerimeter;" vertex="1" parent="8">
                    <mxGeometry x="45" y="330" width="10" height="50" as="geometry"/>
                </mxCell>
                <mxCell id="36" value="本の情報を入力" style="html=1;verticalAlign=bottom;endArrow=block;" edge="1" parent="8" target="9">
                    <mxGeometry width="80" relative="1" as="geometry">
                        <mxPoint x="-55" y="270" as="sourcePoint"/>
                        <mxPoint x="25" y="270" as="targetPoint"/>
                    </mxGeometry>
                </mxCell>
                <mxCell id="59" value="本の情報を入力" style="html=1;verticalAlign=bottom;endArrow=block;" edge="1" parent="8">
                    <mxGeometry width="80" relative="1" as="geometry">
                        <mxPoint x="-53" y="540" as="sourcePoint"/>
                        <mxPoint x="401.5" y="540" as="targetPoint"/>
                    </mxGeometry>
                </mxCell>
                <mxCell id="9" value="本管理コントローラ" style="shape=umlLifeline;perimeter=lifelinePerimeter;whiteSpace=wrap;html=1;container=1;collapsible=0;recursiveResize=0;outlineConnect=0;" vertex="1" parent="1">
                    <mxGeometry x="760" y="20" width="100" height="770" as="geometry"/>
                </mxCell>
                <mxCell id="21" value="登録ボタンを押す" style="html=1;verticalAlign=bottom;endArrow=block;exitX=1.2;exitY=0.242;exitDx=0;exitDy=0;exitPerimeter=0;" edge="1" parent="9" source="19">
                    <mxGeometry width="80" relative="1" as="geometry">
                        <mxPoint x="-70" y="95" as="sourcePoint"/>
                        <mxPoint x="50" y="95" as="targetPoint"/>
                    </mxGeometry>
                </mxCell>
                <mxCell id="22" value="" style="html=1;points=[];perimeter=orthogonalPerimeter;" vertex="1" parent="9">
                    <mxGeometry x="45" y="80" width="10" height="130" as="geometry"/>
                </mxCell>
                <mxCell id="35" value="" style="html=1;points=[];perimeter=orthogonalPerimeter;" vertex="1" parent="9">
                    <mxGeometry x="45" y="250" width="10" height="210" as="geometry"/>
                </mxCell>
                <mxCell id="50" value="削除する" style="html=1;verticalAlign=bottom;endArrow=block;entryX=-0.2;entryY=0.58;entryDx=0;entryDy=0;entryPerimeter=0;" edge="1" parent="9" target="48">
                    <mxGeometry width="80" relative="1" as="geometry">
                        <mxPoint x="55" y="370" as="sourcePoint"/>
                        <mxPoint x="165" y="370" as="targetPoint"/>
                        <Array as="points">
                            <mxPoint x="105.5" y="370"/>
                        </Array>
                    </mxGeometry>
                </mxCell>
                <mxCell id="51" value="本の情報を削除する" style="html=1;verticalAlign=bottom;endArrow=block;" edge="1" parent="9" target="12">
                    <mxGeometry width="80" relative="1" as="geometry">
                        <mxPoint x="55" y="420" as="sourcePoint"/>
                        <mxPoint x="165" y="420" as="targetPoint"/>
                        <Array as="points">
                            <mxPoint x="105.5" y="420"/>
                        </Array>
                    </mxGeometry>
                </mxCell>
                <mxCell id="58" value="" style="html=1;points=[];perimeter=orthogonalPerimeter;" vertex="1" parent="9">
                    <mxGeometry x="45" y="520" width="10" height="210" as="geometry"/>
                </mxCell>
                <mxCell id="10" value="本の登録・削除・更新確認画面" style="shape=umlLifeline;perimeter=lifelinePerimeter;whiteSpace=wrap;html=1;container=1;collapsible=0;recursiveResize=0;outlineConnect=0;" vertex="1" parent="1">
                    <mxGeometry x="630" y="20" width="100" height="770" as="geometry"/>
                </mxCell>
                <mxCell id="19" value="" style="html=1;points=[];perimeter=orthogonalPerimeter;" vertex="1" parent="10">
                    <mxGeometry x="45" y="80" width="10" height="60" as="geometry"/>
                </mxCell>
                <mxCell id="45" value="" style="html=1;points=[];perimeter=orthogonalPerimeter;" vertex="1" parent="10">
                    <mxGeometry x="45" y="355" width="10" height="60" as="geometry"/>
                </mxCell>
                <mxCell id="46" value="" style="html=1;points=[];perimeter=orthogonalPerimeter;" vertex="1" parent="10">
                    <mxGeometry x="45" y="355" width="10" height="60" as="geometry"/>
                </mxCell>
                <mxCell id="47" value="削除する" style="html=1;verticalAlign=bottom;endArrow=block;" edge="1" parent="10">
                    <mxGeometry width="80" relative="1" as="geometry">
                        <mxPoint x="60" y="370" as="sourcePoint"/>
                        <mxPoint x="170" y="370" as="targetPoint"/>
                        <Array as="points">
                            <mxPoint x="110.5" y="370"/>
                        </Array>
                    </mxGeometry>
                </mxCell>
                <mxCell id="69" value="" style="html=1;points=[];perimeter=orthogonalPerimeter;" vertex="1" parent="10">
                    <mxGeometry x="45" y="590" width="10" height="100" as="geometry"/>
                </mxCell>
                <mxCell id="11" value="本台帳" style="shape=umlLifeline;perimeter=lifelinePerimeter;whiteSpace=wrap;html=1;container=1;collapsible=0;recursiveResize=0;outlineConnect=0;" vertex="1" parent="1">
                    <mxGeometry x="890" y="20" width="100" height="770" as="geometry"/>
                </mxCell>
                <mxCell id="23" value="" style="html=1;points=[];perimeter=orthogonalPerimeter;" vertex="1" parent="11">
                    <mxGeometry x="45" y="80" width="10" height="40" as="geometry"/>
                </mxCell>
                <mxCell id="27" value="登録する" style="text;html=1;align=center;verticalAlign=middle;resizable=0;points=[];autosize=1;strokeColor=none;fillColor=none;" vertex="1" parent="11">
                    <mxGeometry x="-40" y="75" width="60" height="20" as="geometry"/>
                </mxCell>
                <mxCell id="37" value="" style="html=1;points=[];perimeter=orthogonalPerimeter;" vertex="1" parent="11">
                    <mxGeometry x="45" y="250" width="10" height="50" as="geometry"/>
                </mxCell>
                <mxCell id="39" value="本の情報を検索する" style="html=1;verticalAlign=bottom;endArrow=block;entryX=0.1;entryY=0.37;entryDx=0;entryDy=0;entryPerimeter=0;" edge="1" parent="11" target="37">
                    <mxGeometry width="80" relative="1" as="geometry">
                        <mxPoint x="-70" y="270" as="sourcePoint"/>
                        <mxPoint x="40" y="270" as="targetPoint"/>
                        <Array as="points">
                            <mxPoint x="-19.5" y="270"/>
                        </Array>
                    </mxGeometry>
                </mxCell>
                <mxCell id="48" value="" style="html=1;points=[];perimeter=orthogonalPerimeter;" vertex="1" parent="11">
                    <mxGeometry x="45" y="340" width="10" height="50" as="geometry"/>
                </mxCell>
                <mxCell id="60" value="" style="html=1;points=[];perimeter=orthogonalPerimeter;" vertex="1" parent="11">
                    <mxGeometry x="45" y="520" width="10" height="50" as="geometry"/>
                </mxCell>
                <mxCell id="62" value="" style="html=1;points=[];perimeter=orthogonalPerimeter;" vertex="1" parent="11">
                    <mxGeometry x="45" y="620" width="10" height="50" as="geometry"/>
                </mxCell>
                <mxCell id="12" value="横田の本" style="shape=umlLifeline;perimeter=lifelinePerimeter;whiteSpace=wrap;html=1;container=1;collapsible=0;recursiveResize=0;outlineConnect=0;" vertex="1" parent="1">
                    <mxGeometry x="1000" y="20" width="100" height="770" as="geometry"/>
                </mxCell>
                <mxCell id="28" value="" style="html=1;points=[];perimeter=orthogonalPerimeter;" vertex="1" parent="12">
                    <mxGeometry x="45" y="100" width="10" height="50" as="geometry"/>
                </mxCell>
                <mxCell id="40" value="" style="html=1;points=[];perimeter=orthogonalPerimeter;" vertex="1" parent="12">
                    <mxGeometry x="45" y="300" width="10" height="140" as="geometry"/>
                </mxCell>
                <mxCell id="61" value="" style="html=1;points=[];perimeter=orthogonalPerimeter;" vertex="1" parent="12">
                    <mxGeometry x="45" y="570" width="10" height="140" as="geometry"/>
                </mxCell>
                <mxCell id="18" value="本の情報を登録" style="html=1;verticalAlign=bottom;endArrow=block;" edge="1" parent="1">
                    <mxGeometry width="80" relative="1" as="geometry">
                        <mxPoint x="40" y="116" as="sourcePoint"/>
                        <mxPoint x="120" y="116" as="targetPoint"/>
                    </mxGeometry>
                </mxCell>
                <mxCell id="24" value="" style="html=1;verticalAlign=bottom;endArrow=block;entryX=0.1;entryY=0.413;entryDx=0;entryDy=0;entryPerimeter=0;" edge="1" parent="1" target="23">
                    <mxGeometry width="80" relative="1" as="geometry">
                        <mxPoint x="815" y="116" as="sourcePoint"/>
                        <mxPoint x="930" y="116" as="targetPoint"/>
                    </mxGeometry>
                </mxCell>
                <mxCell id="26" value="登録完了" style="html=1;verticalAlign=bottom;endArrow=block;" edge="1" parent="1">
                    <mxGeometry width="80" relative="1" as="geometry">
                        <mxPoint x="804" y="200" as="sourcePoint"/>
                        <mxPoint x="131.5" y="200" as="targetPoint"/>
                    </mxGeometry>
                </mxCell>
                <mxCell id="29" value="本の情報を登録する" style="html=1;verticalAlign=bottom;endArrow=block;entryX=0.1;entryY=0.73;entryDx=0;entryDy=0;entryPerimeter=0;" edge="1" parent="1" target="28">
                    <mxGeometry width="80" relative="1" as="geometry">
                        <mxPoint x="815" y="158" as="sourcePoint"/>
                        <mxPoint x="1040" y="158" as="targetPoint"/>
                    </mxGeometry>
                </mxCell>
                <mxCell id="16" value="本の情報を登録&lt;br&gt;をクリック" style="html=1;verticalAlign=bottom;endArrow=block;" edge="1" parent="1">
                    <mxGeometry width="80" relative="1" as="geometry">
                        <mxPoint x="129.5" y="117" as="sourcePoint"/>
                        <mxPoint x="239.5" y="117" as="targetPoint"/>
                        <Array as="points">
                            <mxPoint x="180" y="117"/>
                        </Array>
                    </mxGeometry>
                </mxCell>
                <mxCell id="34" value="本の情報を削除&lt;br&gt;をクリック" style="html=1;verticalAlign=bottom;endArrow=block;entryX=-0.3;entryY=0.162;entryDx=0;entryDy=0;entryPerimeter=0;" edge="1" parent="1" source="4" target="30">
                    <mxGeometry width="80" relative="1" as="geometry">
                        <mxPoint x="280" y="300" as="sourcePoint"/>
                        <mxPoint x="390" y="300" as="targetPoint"/>
                        <Array as="points">
                            <mxPoint x="320" y="290"/>
                        </Array>
                    </mxGeometry>
                </mxCell>
                <mxCell id="42" value="本の情報を取得" style="html=1;verticalAlign=bottom;endArrow=block;" edge="1" parent="1" target="12">
                    <mxGeometry width="80" relative="1" as="geometry">
                        <mxPoint x="820" y="350" as="sourcePoint"/>
                        <mxPoint x="930" y="350" as="targetPoint"/>
                        <Array as="points">
                            <mxPoint x="870.5" y="350"/>
                        </Array>
                    </mxGeometry>
                </mxCell>
                <mxCell id="43" value="検索結果を表示" style="html=1;verticalAlign=bottom;startArrow=oval;startFill=1;endArrow=block;startSize=8;" edge="1" parent="1" source="9" target="8">
                    <mxGeometry width="60" relative="1" as="geometry">
                        <mxPoint x="590" y="370" as="sourcePoint"/>
                        <mxPoint x="650" y="370" as="targetPoint"/>
                        <Array as="points">
                            <mxPoint x="650" y="360"/>
                            <mxPoint x="590" y="360"/>
                        </Array>
                    </mxGeometry>
                </mxCell>
                <mxCell id="63" value="本の情報を検索する" style="html=1;verticalAlign=bottom;endArrow=block;entryX=0.1;entryY=0.37;entryDx=0;entryDy=0;entryPerimeter=0;" edge="1" parent="1">
                    <mxGeometry width="80" relative="1" as="geometry">
                        <mxPoint x="820" y="560" as="sourcePoint"/>
                        <mxPoint x="936" y="558.5" as="targetPoint"/>
                        <Array as="points">
                            <mxPoint x="870.5" y="560"/>
                        </Array>
                    </mxGeometry>
                </mxCell>
                <mxCell id="64" value="本の情報を取得" style="html=1;verticalAlign=bottom;endArrow=block;" edge="1" parent="1">
                    <mxGeometry width="80" relative="1" as="geometry">
                        <mxPoint x="820" y="630" as="sourcePoint"/>
                        <mxPoint x="1049.5" y="630" as="targetPoint"/>
                        <Array as="points">
                            <mxPoint x="870.5" y="630"/>
                        </Array>
                    </mxGeometry>
                </mxCell>
                <mxCell id="65" value="&lt;br&gt;更新する" style="html=1;verticalAlign=bottom;endArrow=block;entryX=-0.2;entryY=0.58;entryDx=0;entryDy=0;entryPerimeter=0;" edge="1" parent="1">
                    <mxGeometry x="-0.1416" y="10" width="80" relative="1" as="geometry">
                        <mxPoint x="817" y="671" as="sourcePoint"/>
                        <mxPoint x="935" y="670" as="targetPoint"/>
                        <Array as="points">
                            <mxPoint x="867.5" y="671"/>
                        </Array>
                        <mxPoint as="offset"/>
                    </mxGeometry>
                </mxCell>
                <mxCell id="66" value="本の情報を更新する" style="html=1;verticalAlign=bottom;endArrow=block;" edge="1" parent="1">
                    <mxGeometry width="80" relative="1" as="geometry">
                        <mxPoint x="820" y="720" as="sourcePoint"/>
                        <mxPoint x="1054.5" y="720" as="targetPoint"/>
                        <Array as="points">
                            <mxPoint x="870.5" y="720"/>
                        </Array>
                    </mxGeometry>
                </mxCell>
                <mxCell id="68" value="更新ボタンを押す" style="html=1;verticalAlign=bottom;endArrow=block;" edge="1" parent="1">
                    <mxGeometry width="80" relative="1" as="geometry">
                        <mxPoint x="580" y="630" as="sourcePoint"/>
                        <mxPoint x="680" y="630" as="targetPoint"/>
                    </mxGeometry>
                </mxCell>
                <mxCell id="70" value="更新する" style="html=1;verticalAlign=bottom;endArrow=block;" edge="1" parent="1">
                    <mxGeometry width="80" relative="1" as="geometry">
                        <mxPoint x="690" y="630" as="sourcePoint"/>
                        <mxPoint x="800" y="630" as="targetPoint"/>
                        <Array as="points">
                            <mxPoint x="740.5" y="630"/>
                        </Array>
                    </mxGeometry>
                </mxCell>
                <mxCell id="72" value="検索結果を表示" style="html=1;verticalAlign=bottom;startArrow=oval;startFill=1;endArrow=block;startSize=8;" edge="1" parent="1">
                    <mxGeometry width="60" relative="1" as="geometry">
                        <mxPoint x="800" y="600" as="sourcePoint"/>
                        <mxPoint x="581" y="600" as="targetPoint"/>
                        <Array as="points">
                            <mxPoint x="640.5" y="600"/>
                            <mxPoint x="580.5" y="600"/>
                        </Array>
                    </mxGeometry>
                </mxCell>
                <mxCell id="74" value="更新完了" style="html=1;verticalAlign=bottom;endArrow=block;" edge="1" parent="1" source="9">
                    <mxGeometry width="80" relative="1" as="geometry">
                        <mxPoint x="740" y="740" as="sourcePoint"/>
                        <mxPoint x="140" y="740" as="targetPoint"/>
                    </mxGeometry>
                </mxCell>
            </root>
        </mxGraphModel>
    </diagram>
</mxfile>